<svg xmlns="http://www.w3.org/2000/svg" viewBox="0 0 1440 320" preserveAspectRatio="none">
  <path fill="#0284c7" fill-opacity="0.1" d="M0,224L48,213.3C96,203,192,181,288,181.3C384,181,480,203,576,218.7C672,235,768,245,864,229.3C960,213,1056,171,1152,165.3C1248,160,1344,192,1392,208L1440,224L1440,320L1392,320C1344,320,1248,320,1152,320C1056,320,960,320,864,320C768,320,672,320,576,320C480,320,384,320,288,320C192,320,96,320,48,320L0,320Z"></path>
  <path fill="#0284c7" fill-opacity="0.2" d="M0,128L48,154.7C96,181,192,235,288,234.7C384,235,480,181,576,165.3C672,149,768,171,864,176C960,181,1056,171,1152,170.7C1248,171,1344,181,1392,186.7L1440,192L1440,320L1392,320C1344,320,1248,320,1152,320C1056,320,960,320,864,320C768,320,672,320,576,320C480,320,384,320,288,320C192,320,96,320,48,320L0,320Z"></path>
  <path fill="#0284c7" fill-opacity="0.3" d="M0,32L48,69.3C96,107,192,181,288,208C384,235,480,213,576,186.7C672,160,768,128,864,122.7C960,117,1056,139,1152,154.7C1248,171,1344,181,1392,186.7L1440,192L1440,320L1392,320C1344,320,1248,320,1152,320C1056,320,960,320,864,320C768,320,672,320,576,320C480,320,384,320,288,320C192,320,96,320,48,320L0,320Z"></path>
</svg>
